<svg id="eu2wPmGLJNa1" xmlns="http://www.w3.org/2000/svg" xmlns:xlink="http://www.w3.org/1999/xlink" viewBox="0 0 300 300" shape-rendering="geometricPrecision" text-rendering="geometricPrecision" project-id="2824237fcbf2475db78fc0e95a1a5f4d" export-id="efe4edc52b9c43f8ba461ff58fc0deee" cached="false"><g transform="translate(27.000501 0)"><rect width="141.795482" height="10.701546" rx="0" ry="0" transform="matrix(.750432 0.660948-.660948 0.750432 137.619946 44.266147)" fill="#d2dbed" stroke-width="0"/><rect width="141.795482" height="10.701546" rx="0" ry="0" transform="matrix(.687963-.781105 0.750432 0.660948 132.275248 248.660691)" fill="#d2dbed" stroke-width="0"/></g><g transform="translate(-75.327179-.000001)"><rect width="141.795482" height="10.701546" rx="0" ry="0" transform="matrix(.750432 0.660948-.660948 0.750432 100.332654 44.266147)" fill="#d2dbed" stroke-width="0"/><rect width="141.795482" height="10.701546" rx="0" ry="0" transform="matrix(.687963-.781105 0.750432 0.660948 94.987956 248.660691)" fill="#d2dbed" stroke-width="0"/></g><g transform="translate(.000001 0)"><rect width="141.795482" height="10.701546" rx="0" ry="0" transform="matrix(.750432 0.660948-.660948 0.750432 100.332654 44.266147)" fill="#d2dbed" stroke-width="0"/><rect width="141.795482" height="10.701546" rx="0" ry="0" transform="matrix(.687963-.781105 0.750432 0.660948 94.987956 248.660691)" fill="#d2dbed" stroke-width="0"/></g></svg>
