<svg id="untitled" xmlns="http://www.w3.org/2000/svg" xmlns:xlink="http://www.w3.org/1999/xlink" viewBox="0 0 300 300" shape-rendering="geometricPrecision" text-rendering="geometricPrecision" project-id="2824237fcbf2475db78fc0e95a1a5f4d" export-id="edaad00a6807498f9ffc781f9a701636" cached="false" style="background-color:transparent"><g id="untitled-u-dog-front-view" transform="translate(-45.975006-64.398964)"><g id="untitled-u-leg-4"><path id="untitled-s-path1" d="M210.89,323.07c.5-11,9.83-37.83,27-47.5s29.17-8.33,23,23.5c-3.648014,19.009565-9.812236,37.448422-18.33,54.83-11,0-31.67,1.17-31.67,1.17-.931125-10.646347-.931125-21.353653,0-32Z" fill="#282f36"/><path id="untitled-s-path2" d="M223.06,351.9c6.67-6.67,32.17-12,34.83-8.83s-2,12.83-9.83,12.83c-2.67,0-33.17,3.33-25-4Z" fill="#282f36"/></g><g id="untitled-u-leg-3"><path id="untitled-s-path3" d="M181.06,323.07c-.5-11-9.83-37.83-27-47.5s-29.17-8.33-23,23.5c3.648014,19.009565,9.812236,37.448422,18.33,54.83c11,0,31.67,1.17,31.67,1.17.931125-10.646347.931125-21.353653,0-32Z" fill="#282f36"/><path id="untitled-s-path4" d="M168.89,351.9c-6.67-6.67-32.17-12-34.83-8.83s2,12.83,9.83,12.83c2.67,0,33.17,3.33,25-4Z" fill="#282f36"/></g><g id="untitled-u-body"><path id="untitled-s-path5" d="M228.81,171.07c-35.87-23.21-6-23.21-35.87-23.21s-35.62,23.21-35.62,23.21c-4.67,19.33-14.5,54.33-11.5,69.17s13.33,115.5,20.5,115.5c5.12,0,18.7.75,26.75.75s21.63-.75,26.75-.75c7.17,0,17.5-100.67,20.5-115.5s-6.85-49.84-11.51-69.17Z" fill="#282f36"/><path id="untitled-s-path6" d="M210.31,200.73c-.5-2.75,4-6,5.5-8.5s-8.25.5-4.75-2.25s10.25-10.5,8.25-15.75c0,0-3.87-9.87-26.19-9.87s-26.31,9.88-26.31,9.88c-2,5.25,4.75,13,8.25,15.75s-6.25-.25-4.75,2.25s6,5.75,5.5,8.5-11.75,4.5-9.5,17s13.5,12.25,14,30.5c.48,17.4,1,96.86,1.65,108c4,.14,8,.25,11.1.25s7.11-.11,11.1-.25c.69-11.13,1.17-90.6,1.65-108c.5-18.25,11.75-18,14-30.5s-9-14.26-9.5-17.01Z" fill="#e0bf7e"/></g><g id="untitled-u-head"><g id="untitled-u-ears"><path id="untitled-s-path7" d="M215.65,87.51c3.3-6.86,35.25-26.71,40.11-22.26s-4.51,46.74-16.49,56C228.33,127,203,107.17,215.65,87.51Z" fill="#282f36"/><path id="untitled-s-path8" d="M171.21,87.51C167.91,80.65,136,60.8,131.1,65.25s4.51,46.74,16.49,56c10.94,5.75,36.29-14.08,23.62-33.74Z" fill="#282f36"/></g><path id="untitled-s-path9" d="M239.39,127.07c.33-10.5.67-17.5-7.83-30.17-8.24-12.28-25.72-13.12-38.17-13.16h-.67c-12.45,0-29.93.88-38.17,13.16-8.5,12.67-8.17,19.67-7.83,30.17s-6.67,25-2.83,34.5c3.75,9.3,22.85,19.07,48.83,19.47h.67c26-.41,45.08-10.17,48.83-19.47c3.84-9.5-3.16-24-2.83-34.5Z" fill="#333b45"/><path id="untitled-s-path10" d="M219.22,157c.05-5.26-16.75-11.23-19.75-19.39s6.13-22.61,9.92-30.61c3.57-7.52,2.28-16.44-.09-22.2-5.269966-.739622-10.588899-1.073935-15.91-1h-.67c-5.321101-.073935-10.640034.260378-15.91,1-2.37,5.76-3.66,14.68-.09,22.2c3.79,8,12.92,22.46,9.92,30.62s-19.8,14.13-19.75,19.39c.06,6,4.63,16.4,12.36,23c4.463746.667114,8.967152,1.034603,13.48,1.1h.67c4.512848-.065397,9.016254-.432886,13.48-1.1c7.72-6.63,12.28-17.01,12.34-23.01Z" fill="#f5e4c4"/><g id="untitled-u-eyes"><circle id="untitled-s-circle1" r="5" transform="translate(170.06 130.82)"/><circle id="untitled-s-circle2" r="5" transform="translate(216.06 130.82)"/></g><g id="untitled-u-mouth"><g id="untitled-u-mouth2"><path id="untitled-s-path11" d="M178.75,162.81c3.62,6.33,15.24,4.74,14-4.74" fill="none" stroke="#e0bf7e" stroke-width="2" stroke-linecap="round" stroke-miterlimit="10"/></g><g id="untitled-u-mouth3"><path id="untitled-s-path12" d="M207.36,162.84c-3.62,6.33-15.24,4.74-14-4.74" fill="none" stroke="#e0bf7e" stroke-width="2" stroke-linecap="round" stroke-miterlimit="10"/></g></g><path id="untitled-u-nose" d="M201.29,150.23c.12-4.19-3.1-3.82-8.23-3.81s-8.36-.38-8.23,3.81s2.87,8.39,8.22,8.6v0c5.37-.2,8.12-4.45,8.24-8.6Z"/></g><g id="untitled-u-leg-1"><path id="untitled-s-path13" d="M185,363.55c3.18-1.75,3-8.69-11.25-13.94-13.2-4.86-19.78-3.07-17,5.75c1.608553,4.954457,6.116711,8.395313,11.32,8.64c3.12.11,15.12.55,16.93-.45Z" fill="#333b45"/><path id="untitled-s-path14" d="M149.06,231.09c-2.25,9.1,1.75,25.27,6,49s11.75,67.19,12.63,77.8c-.5,5.31,2,6.07,10.5,6.07s10.63,1.77,8.75-22.75c-2.24-29.3-3.16-74.17-4.62-85.38-4.51-34.35-29.51-39.66-33.26-24.74Z" fill="#333b45"/></g><g id="untitled-u-leg-2"><path id="untitled-s-path15" d="M237.06,231.09c2.25,9.1-1.75,25.27-6,49s-11.75,67.19-12.62,77.8c.5,5.31-2,6.07-10.5,6.07s-10.62,1.77-8.75-22.75c2.24-29.3,3.16-74.17,4.63-85.38c4.49-34.35,29.49-39.66,33.24-24.74Z" fill="#333b45"/><path id="untitled-s-path16" d="M201.11,363.55c-3.18-1.75-3-8.69,11.25-13.94c13.2-4.86,19.78-3.07,17,5.75-1.613694,4.967675-6.141798,8.411585-11.36,8.64-3.08.11-15.08.55-16.89-.45Z" fill="#333b45"/></g></g></svg>
